<svg xmlns="http://www.w3.org/2000/svg" xmlns:xlink="http://www.w3.org/1999/xlink" width="64" zoomAndPan="magnify" viewBox="0 0 48 48" height="64" preserveAspectRatio="xMidYMid meet" version="1.2"><defs><clipPath id="55815c5e22"><path d="M 0.488281 30 L 47.507812 30 L 47.507812 41 L 0.488281 41 Z M 0.488281 30 "/></clipPath><clipPath id="5fdda0d8b6"><path d="M 10 6.9375 L 38.714844 6.9375 L 38.714844 29.523438 L 10 29.523438 Z M 10 6.9375 "/></clipPath></defs><g id="3c7d05a0df"><g clip-rule="nonzero" clip-path="url(#55815c5e22)"><path style="fill:none;stroke-width:13;stroke-linecap:butt;stroke-linejoin:miter;stroke:#999999;stroke-opacity:1;stroke-miterlimit:4;" d="M 0.000279265 6.499987 L 59.272225 6.499987 " transform="matrix(0.731401,0.000000000000000088,-0.000000000000000088,0.731401,2.226358,30.531059)"/></g><g clip-rule="nonzero" clip-path="url(#5fdda0d8b6)"><path style=" stroke:none;fill-rule:nonzero;fill:#000000;fill-opacity:1;" d="M 17.054688 8.460938 C 16.988281 8.460938 16.902344 8.460938 16.792969 8.460938 C 16.242188 8.460938 15.910156 8.449219 15.800781 8.425781 C 15.6875 8.402344 15.632812 8.28125 15.632812 8.0625 C 15.632812 7.46875 15.753906 7.105469 15.996094 6.972656 C 16.042969 6.949219 17.109375 6.9375 19.207031 6.9375 C 20.902344 6.9375 21.871094 6.9375 22.113281 6.9375 C 22.359375 6.9375 22.511719 7.003906 22.578125 7.136719 C 27.230469 18.070312 29.597656 23.679688 29.6875 23.96875 L 31.472656 16.925781 C 32.640625 12.273438 33.226562 9.792969 33.226562 9.484375 C 33.226562 8.890625 32.519531 8.546875 31.109375 8.460938 C 30.582031 8.460938 30.316406 8.339844 30.316406 8.09375 C 30.316406 8.050781 30.335938 7.917969 30.382812 7.699219 C 30.46875 7.347656 30.535156 7.136719 30.582031 7.070312 C 30.625 7.003906 30.734375 6.960938 30.910156 6.9375 C 30.976562 6.9375 31.320312 6.949219 31.9375 6.972656 C 32.554688 6.992188 33.46875 7.015625 34.679688 7.039062 C 35.78125 7.039062 36.621094 7.027344 37.195312 7.003906 C 37.765625 6.980469 38.097656 6.972656 38.1875 6.972656 C 38.515625 6.972656 38.683594 7.082031 38.683594 7.300781 C 38.683594 7.785156 38.59375 8.117188 38.417969 8.292969 C 38.371094 8.402344 38.128906 8.460938 37.691406 8.460938 C 36.125 8.546875 35.144531 8.988281 34.746094 9.78125 L 29.820312 29.292969 C 29.777344 29.445312 29.542969 29.523438 29.125 29.523438 C 28.816406 29.523438 28.628906 29.5 28.5625 29.457031 C 28.496094 29.390625 27.074219 26.050781 24.296875 19.4375 L 20.097656 9.550781 L 17.949219 18.148438 C 16.515625 23.792969 15.800781 26.710938 15.800781 26.910156 C 15.910156 27.636719 16.703125 28 18.179688 28 L 18.511719 28 C 18.644531 28.113281 18.710938 28.199219 18.710938 28.265625 C 18.710938 28.332031 18.6875 28.542969 18.644531 28.894531 C 18.554688 29.179688 18.445312 29.390625 18.3125 29.523438 L 17.882812 29.523438 C 17.199219 29.480469 16.007812 29.457031 14.3125 29.457031 C 13.695312 29.457031 13.132812 29.457031 12.625 29.457031 C 12.117188 29.457031 11.710938 29.457031 11.402344 29.457031 C 11.09375 29.457031 10.90625 29.46875 10.839844 29.488281 C 10.507812 29.488281 10.34375 29.390625 10.34375 29.191406 C 10.34375 29.105469 10.375 28.929688 10.441406 28.664062 C 10.507812 28.398438 10.5625 28.246094 10.609375 28.199219 C 10.652344 28.066406 10.90625 28 11.367188 28 C 12.867188 27.9375 13.835938 27.507812 14.277344 26.710938 C 14.367188 26.578125 15.148438 23.527344 16.625 17.554688 L 18.875 8.558594 C 18.832031 8.535156 18.222656 8.503906 17.054688 8.460938 Z M 17.054688 8.460938 "/></g></g></svg>